<?xml version="1.0" encoding="iso-8859-1"?>
<!-- Generator: Adobe Illustrator 19.0.0, SVG Export Plug-In . SVG Version: 6.00 Build 0)  -->
<svg version="1.1" id="Capa_1" xmlns="http://www.w3.org/2000/svg" xmlns:xlink="http://www.w3.org/1999/xlink" x="0px" y="0px"
	 viewBox="0 0 511.999 511.999" style="enable-background:new 0 0 511.999 511.999;" xml:space="preserve">
<path style="fill:#FDEAAF;" d="M255.233,339.761L255.233,339.761c-16.694,0-30.228,13.534-30.228,30.228v104.283
	c0,16.694,13.534,30.228,30.228,30.228l0,0c16.695,0,30.228-13.533,30.228-30.228V369.989
	C285.461,353.295,271.928,339.761,255.233,339.761z"/>
<g>
	<path style="fill:#F8CC7C;" d="M255.233,339.761c-4.212,0-8.221,0.864-11.864,2.42c10.796,4.612,18.363,15.326,18.363,27.808
		v104.283c0,12.483-7.567,23.196-18.363,27.808c3.643,1.556,7.652,2.42,11.864,2.42c16.694,0,30.228-13.533,30.228-30.228V369.989
		C285.461,353.295,271.928,339.761,255.233,339.761z"/>
	<path style="fill:#F8CC7C;" d="M255.233,339.761c-16.694,0-30.228,13.534-30.228,30.228v32.837h60.456v-32.837
		C285.461,353.295,271.928,339.761,255.233,339.761z"/>
</g>
<path style="fill:#EE81A7;" d="M256,7.5L256,7.5c56.307,0,102.404,44.78,104.035,101.063l7.114,245.461
	c0.367,12.663-9.799,23.128-22.467,23.128H167.319c-12.669,0-22.834-10.465-22.467-23.128l7.114-245.461
	C153.596,52.28,199.693,7.5,256,7.5z"/>
<path style="fill:#EA6C9D;" d="M367.149,354.024l-7.114-245.461C358.404,52.28,312.307,7.5,256,7.5l0,0
	c-4.574,0-9.079,0.3-13.5,0.874c50.001,6.482,89.036,48.479,90.535,100.19l7.114,245.461c0.367,12.663-9.799,23.128-22.467,23.128
	h27C357.35,377.152,367.516,366.688,367.149,354.024z"/>
<path style="fill:#80B9F9;" d="M364.121,249.539H147.879l-3.028,104.485c-0.367,12.663,9.799,23.128,22.467,23.128h177.363
	c12.669,0,22.834-10.465,22.467-23.128L364.121,249.539z"/>
<path style="fill:#3185DB;" d="M367.149,354.024l-3.028-104.485h-27l3.028,104.485c0.367,12.663-9.799,23.128-22.467,23.128h27
	C357.35,377.152,367.516,366.688,367.149,354.024z"/>
<path style="fill:#FDEAAF;" d="M360.908,138.688l-0.873-30.124C358.404,52.28,312.307,7.5,256,7.5l0,0
	c-56.307,0-102.404,44.78-104.035,101.063l-0.873,30.124L360.908,138.688L360.908,138.688z"/>
<path style="fill:#F8CC7C;" d="M252.06,7.581c-0.824,0.031-1.646,0.07-2.464,0.121c-0.227,0.014-0.454,0.027-0.681,0.042
	c-2.156,0.146-4.295,0.354-6.414,0.629H242.5c50.001,6.482,89.036,48.479,90.534,100.19l0.873,30.124h27l-0.873-30.124
	C358.404,52.28,312.307,7.5,256,7.5c-1.046,0-2.087,0.02-3.126,0.051C252.602,7.559,252.331,7.571,252.06,7.581z"/>
<path d="M374.647,353.805l-0.41-14.25c-0.12-4.141-3.577-7.398-7.712-7.282c-4.141,0.119-7.4,3.572-7.282,7.712l0.41,14.254
	c0.119,4.081-1.381,7.94-4.225,10.868c-2.845,2.93-6.663,4.543-10.749,4.543h-59.22h-60.45h-57.69
	c-4.086,0-7.903-1.613-10.749-4.543c-2.843-2.928-4.344-6.787-4.224-10.87l2.819-97.198h179.431c4.142,0,7.5-3.358,7.5-7.5
	s-3.358-7.5-7.5-7.5H155.601l3.866-133.265c0.436-15.276,4.324-29.791,11.557-43.141c1.973-3.642,0.621-8.194-3.021-10.167
	c-3.641-1.973-8.193-0.621-10.167,3.021c-8.363,15.436-12.859,32.211-13.363,49.855l-7.12,245.458
	c-0.239,8.168,2.765,15.895,8.457,21.756c5.695,5.864,13.333,9.093,21.509,9.093h50.19v89.62c0,20.804,16.921,37.73,37.72,37.73
	c10.084,0,19.56-3.923,26.683-11.046c7.124-7.124,11.047-16.6,11.047-26.684v-89.62h51.72c8.176,0,15.814-3.229,21.509-9.093
	C371.882,369.696,374.885,361.97,374.647,353.805z M277.96,474.27c0,6.077-2.363,11.786-6.654,16.077
	c-4.29,4.291-9.999,6.653-16.076,6.653c-12.528,0-22.72-10.197-22.72-22.73v-89.62h45.45V474.27z"/>
<path d="M173.592,138.688c0,4.142,3.358,7.5,7.5,7.5h172.529l4.75,163.896c0.118,4.066,3.451,7.283,7.493,7.283
	c0.073,0,0.147-0.001,0.221-0.003c4.141-0.12,7.399-3.574,7.28-7.714l-5.834-201.303c-0.846-29.183-12.845-56.457-33.785-76.8
	C312.805,11.203,285.195,0,256,0c-29.634,0-57.543,11.496-78.585,32.369c-2.941,2.917-2.96,7.666-0.043,10.606
	c2.917,2.941,7.666,2.96,10.606,0.043C206.192,24.951,230.349,15,256,15c25.27,0,49.169,9.697,67.294,27.305
	c18.126,17.608,28.511,41.216,29.243,66.475l0.649,22.407H181.092C176.95,131.188,173.592,134.545,173.592,138.688z"/>
<g>
</g>
<g>
</g>
<g>
</g>
<g>
</g>
<g>
</g>
<g>
</g>
<g>
</g>
<g>
</g>
<g>
</g>
<g>
</g>
<g>
</g>
<g>
</g>
<g>
</g>
<g>
</g>
<g>
</g>
</svg>
