<?xml version="1.0"?>
<svg xmlns="http://www.w3.org/2000/svg" id="filled_outline" data-name="filled outline" viewBox="0 0 64 64" width="512" height="512"><rect x="11" y="12" width="42" height="49" rx="18" ry="18" style="fill:#55d97a"/><path d="M15.2583,18.38745l2.17182,3.2577a3.45207,3.45207,0,0,1-.43006,4.35461l-.06093.061a2.74383,2.74383,0,0,0,.001,3.87937l.11017.11017a2.72086,2.72086,0,0,1,.01245,3.8692l-.11474.11365a2.75011,2.75011,0,0,0-.00586,3.902l.10223.10187a2.74728,2.74728,0,0,1,.01831,3.90515l-.13324.13263a2.71367,2.71367,0,0,0,.00231,3.8488l.52577.52211a2.1821,2.1821,0,0,1,.0054,3.09134l-3.441,3.441a18.05028,18.05028,0,0,0,8.25128,6.70972l4.98432-5.69642a2.82841,2.82841,0,0,0-.12862-3.8625L27,50a2.794,2.794,0,0,1-.03567-3.965A2.82844,2.82844,0,0,0,27,42a2.82846,2.82846,0,0,1,0-4,2.82846,2.82846,0,0,0,0-4,2.82846,2.82846,0,0,1,0-4,2.82844,2.82844,0,0,0-.03556-4.03493A2.79429,2.79429,0,0,1,27,22l.20913-.20917a2.83,2.83,0,0,0,.20853-3.76883l-1.45355-1.81689a11.72943,11.72943,0,0,1-1.58367-2.6186L24,12.71857A17.99515,17.99515,0,0,0,15.2583,18.38745Z" style="fill:#46b365"/><path d="M48.7417,18.38745a17.97985,17.97985,0,0,0-10.10877-6.02038L37,14a2.82846,2.82846,0,0,0,0,4,2.82846,2.82846,0,0,1,0,4,2.82846,2.82846,0,0,0,0,4,2.82846,2.82846,0,0,1,0,4,2.82846,2.82846,0,0,0,0,4,2.82846,2.82846,0,0,1,0,4,2.82846,2.82846,0,0,0,0,4,2.82846,2.82846,0,0,1,0,4,2.82846,2.82846,0,0,0,0,4,2.82846,2.82846,0,0,1,0,4l-.2099.2099a2.82842,2.82842,0,0,0-.20862,3.76691l2.11231,2.64044a18.00967,18.00967,0,0,0,11.2843-7.63916l-3.441-3.441a2.18209,2.18209,0,0,1,.00543-3.09131l.52576-.52209a2.7137,2.7137,0,0,0,.00232-3.84882l-.13324-.13263a2.74728,2.74728,0,0,1,.01831-3.90515l.10223-.10187a2.75024,2.75024,0,0,0-.00561-3.90179l-.115-.1139a2.72086,2.72086,0,0,1,.01245-3.8692l.11017-.11017a2.744,2.744,0,0,0-.00025-3.88061l-.05969-.05975a3.44968,3.44968,0,0,1-.43115-4.353Z" style="fill:#46b365"/><path d="M10,43A19.02162,19.02162,0,0,0,29,62h6A19.02162,19.02162,0,0,0,54,43V30A19.01728,19.01728,0,0,0,38.30762,11.30762L38.293,11.293l-.01074.01074A18.97108,18.97108,0,0,0,35,11H34V9h4V7H34V5.5A3.5,3.5,0,1,0,30.5,9H32v2H29A19.02162,19.02162,0,0,0,10,30ZM30.5,7A1.5,1.5,0,1,1,32,5.5V7ZM52,43a16.87846,16.87846,0,0,1-2.21912,8.36682l-2.53674-2.53674a1.183,1.183,0,0,1,.00244-1.67481l.52637-.52148a3.71274,3.71274,0,0,0,.00342-5.2666l-.1333-.13379a1.71815,1.71815,0,0,1-.51123-1.22656,1.77085,1.77085,0,0,1,.52929-1.26075l.10254-.10254a3.75106,3.75106,0,0,0-.00879-5.32226L47.6416,33.21a1.69565,1.69565,0,0,1-.50586-1.207,1.7474,1.7474,0,0,1,.51807-1.24316l.11377-.11231A3.7683,3.7683,0,0,0,47.707,25.293a2.45744,2.45744,0,0,1-.30615-3.0918l1.39636-2.09442A16.88773,16.88773,0,0,1,52,30ZM47.47278,18.488l-1.736,2.60376a4.48513,4.48513,0,0,0,.61572,5.6748,1.74571,1.74571,0,0,1,.00342,2.46387l-.11377.1123a3.73688,3.73688,0,0,0-1.10645,2.665,3.684,3.684,0,0,0,1.09912,2.624l.11328.11132a1.75057,1.75057,0,0,1,.00391,2.4834l-.10254.10254a3.7561,3.7561,0,0,0-1.11767,2.67774,3.70493,3.70493,0,0,0,1.10009,2.64355l.1333.13379a1.71284,1.71284,0,0,1-.001,2.42969l-.52637.52148a3.18282,3.18282,0,0,0-.00781,4.50879l2.831,2.83106a17.01628,17.01628,0,0,1-9.59082,6.41168l-1.708-2.13532a1.8263,1.8263,0,0,1,.13477-2.43457l.21-.21a3.83262,3.83262,0,0,0,0-5.41406,1.82836,1.82836,0,0,1,0-2.58594,3.83262,3.83262,0,0,0,0-5.41406,1.82836,1.82836,0,0,1,0-2.58594,3.83262,3.83262,0,0,0,0-5.41406,1.82836,1.82836,0,0,1,0-2.58594,3.83262,3.83262,0,0,0,0-5.41406,1.83071,1.83071,0,0,1,0-2.58594,3.83262,3.83262,0,0,0,0-5.41406,1.83071,1.83071,0,0,1,0-2.58594l1.22858-1.22858A16.98365,16.98365,0,0,1,47.47278,18.488ZM35,13c.50952,0,1.01123.03235,1.50946.07648L36.293,13.293a3.83262,3.83262,0,0,0,0,5.41406,1.82836,1.82836,0,0,1,0,2.58594,3.83262,3.83262,0,0,0,0,5.41406,1.83071,1.83071,0,0,1,0,2.58594,3.83262,3.83262,0,0,0,0,5.41406,1.83071,1.83071,0,0,1,0,2.58594,3.83262,3.83262,0,0,0,0,5.41406,1.83071,1.83071,0,0,1,0,2.58594,3.83262,3.83262,0,0,0,0,5.41406,1.83071,1.83071,0,0,1,0,2.58594l-.21045.21a3.825,3.825,0,0,0-.28174,5.09863l1.03589,1.29505A17.07784,17.07784,0,0,1,35,60H29a16.9402,16.9402,0,0,1-5.0105-.75543l4.02027-4.59418a3.83735,3.83735,0,0,0-.17383-5.22851L27.707,49.293a1.82836,1.82836,0,0,1,0-2.58594,3.83262,3.83262,0,0,0,0-5.41406,1.82836,1.82836,0,0,1,0-2.58594,3.83262,3.83262,0,0,0,0-5.41406,1.82836,1.82836,0,0,1,0-2.58594,3.83262,3.83262,0,0,0,0-5.41406,1.82836,1.82836,0,0,1,0-2.58594l.30567-.30566a3.817,3.817,0,0,0,.4082-4.93262l-2.9292-4.10046A16.99445,16.99445,0,0,1,29,13Zm-11.55054.94916,3.344,4.6817a1.8238,1.8238,0,0,1-.19483,2.35644L26.293,21.293a3.83262,3.83262,0,0,0,0,5.41406,1.83071,1.83071,0,0,1,0,2.58594,3.83262,3.83262,0,0,0,0,5.41406,1.83071,1.83071,0,0,1,0,2.58594,3.83262,3.83262,0,0,0,0,5.41406,1.82954,1.82954,0,0,1,0,2.58594,3.83262,3.83262,0,0,0,0,5.41406l.12891.12891a1.8332,1.8332,0,0,1,.083,2.49707L22.00464,58.4765a17.07883,17.07883,0,0,1-6.66577-5.4013l2.83105-2.83106a3.18224,3.18224,0,0,0-.0083-4.50879l-.52539-.52148a1.71343,1.71343,0,0,1-.00146-2.43067l.1333-.13183a3.70886,3.70886,0,0,0,1.10009-2.64453A3.75849,3.75849,0,0,0,17.75,37.32812l-.10156-.10058a1.75055,1.75055,0,0,1,.002-2.48242l.11621-.11524a3.68073,3.68073,0,0,0,1.09766-2.62207,3.73783,3.73783,0,0,0-1.10987-2.668l-.10693-.10644A1.76617,1.76617,0,0,1,17.707,26.707a4.46145,4.46145,0,0,0,.55615-5.61523l-1.736-2.60376A17.02036,17.02036,0,0,1,23.44946,13.94916ZM12,30a16.88773,16.88773,0,0,1,3.20276-9.89325l1.39636,2.09442a2.48194,2.48194,0,0,1-.36572,3.15137,3.74982,3.74982,0,0,0,.00244,5.29785l.10693.10645a1.74839,1.74839,0,0,1,.52149,1.24609,1.69242,1.69242,0,0,1-.5044,1.20508l-.11621.11523a3.75105,3.75105,0,0,0-.00683,5.32129l.10156.10059a1.7732,1.7732,0,0,1,.52978,1.26172,1.72207,1.72207,0,0,1-.51123,1.22754l-.1333.13183a3.71333,3.71333,0,0,0,.00391,5.26758l.52539.52148a1.18237,1.18237,0,0,1,.00293,1.67481l-2.53674,2.53674A16.87846,16.87846,0,0,1,12,43Z" style="fill:#231f20"/><path d="M10,43A19.02162,19.02162,0,0,0,29,62h6A19.02162,19.02162,0,0,0,54,43V30A19.01728,19.01728,0,0,0,38.30762,11.30762L38.293,11.293l-.01074.01074A18.97108,18.97108,0,0,0,35,11H34V9h4V7H34V5.5A3.5,3.5,0,1,0,30.5,9H32v2H29A19.02162,19.02162,0,0,0,10,30ZM30.5,7A1.5,1.5,0,1,1,32,5.5V7ZM52,43a16.87846,16.87846,0,0,1-2.21912,8.36682l-2.53674-2.53674a1.183,1.183,0,0,1,.00244-1.67481l.52637-.52148a3.71274,3.71274,0,0,0,.00342-5.2666l-.1333-.13379a1.71815,1.71815,0,0,1-.51123-1.22656,1.77085,1.77085,0,0,1,.52929-1.26075l.10254-.10254a3.75106,3.75106,0,0,0-.00879-5.32226L47.6416,33.21a1.69565,1.69565,0,0,1-.50586-1.207,1.7474,1.7474,0,0,1,.51807-1.24316l.11377-.11231A3.7683,3.7683,0,0,0,47.707,25.293a2.45744,2.45744,0,0,1-.30615-3.0918l1.39636-2.09442A16.88773,16.88773,0,0,1,52,30ZM47.47278,18.488l-1.736,2.60376a4.48513,4.48513,0,0,0,.61572,5.6748,1.74571,1.74571,0,0,1,.00342,2.46387l-.11377.1123a3.73688,3.73688,0,0,0-1.10645,2.665,3.684,3.684,0,0,0,1.09912,2.624l.11328.11132a1.75057,1.75057,0,0,1,.00391,2.4834l-.10254.10254a3.7561,3.7561,0,0,0-1.11767,2.67774,3.70493,3.70493,0,0,0,1.10009,2.64355l.1333.13379a1.71284,1.71284,0,0,1-.001,2.42969l-.52637.52148a3.18282,3.18282,0,0,0-.00781,4.50879l2.831,2.83106a17.01628,17.01628,0,0,1-9.59082,6.41168l-1.708-2.13532a1.8263,1.8263,0,0,1,.13477-2.43457l.21-.21a3.83262,3.83262,0,0,0,0-5.41406,1.82836,1.82836,0,0,1,0-2.58594,3.83262,3.83262,0,0,0,0-5.41406,1.82836,1.82836,0,0,1,0-2.58594,3.83262,3.83262,0,0,0,0-5.41406,1.82836,1.82836,0,0,1,0-2.58594,3.83262,3.83262,0,0,0,0-5.41406,1.83071,1.83071,0,0,1,0-2.58594,3.83262,3.83262,0,0,0,0-5.41406,1.83071,1.83071,0,0,1,0-2.58594l1.22858-1.22858A16.98365,16.98365,0,0,1,47.47278,18.488ZM35,13c.50952,0,1.01123.03235,1.50946.07648L36.293,13.293a3.83262,3.83262,0,0,0,0,5.41406,1.82836,1.82836,0,0,1,0,2.58594,3.83262,3.83262,0,0,0,0,5.41406,1.83071,1.83071,0,0,1,0,2.58594,3.83262,3.83262,0,0,0,0,5.41406,1.83071,1.83071,0,0,1,0,2.58594,3.83262,3.83262,0,0,0,0,5.41406,1.83071,1.83071,0,0,1,0,2.58594,3.83262,3.83262,0,0,0,0,5.41406,1.83071,1.83071,0,0,1,0,2.58594l-.21045.21a3.825,3.825,0,0,0-.28174,5.09863l1.03589,1.29505A17.07784,17.07784,0,0,1,35,60H29a16.9402,16.9402,0,0,1-5.0105-.75543l4.02027-4.59418a3.83735,3.83735,0,0,0-.17383-5.22851L27.707,49.293a1.82836,1.82836,0,0,1,0-2.58594,3.83262,3.83262,0,0,0,0-5.41406,1.82836,1.82836,0,0,1,0-2.58594,3.83262,3.83262,0,0,0,0-5.41406,1.82836,1.82836,0,0,1,0-2.58594,3.83262,3.83262,0,0,0,0-5.41406,1.82836,1.82836,0,0,1,0-2.58594l.30567-.30566a3.817,3.817,0,0,0,.4082-4.93262l-2.9292-4.10046A16.99445,16.99445,0,0,1,29,13Zm-11.55054.94916,3.344,4.6817a1.8238,1.8238,0,0,1-.19483,2.35644L26.293,21.293a3.83262,3.83262,0,0,0,0,5.41406,1.83071,1.83071,0,0,1,0,2.58594,3.83262,3.83262,0,0,0,0,5.41406,1.83071,1.83071,0,0,1,0,2.58594,3.83262,3.83262,0,0,0,0,5.41406,1.82954,1.82954,0,0,1,0,2.58594,3.83262,3.83262,0,0,0,0,5.41406l.12891.12891a1.8332,1.8332,0,0,1,.083,2.49707L22.00464,58.4765a17.07883,17.07883,0,0,1-6.66577-5.4013l2.83105-2.83106a3.18224,3.18224,0,0,0-.0083-4.50879l-.52539-.52148a1.71343,1.71343,0,0,1-.00146-2.43067l.1333-.13183a3.70886,3.70886,0,0,0,1.10009-2.64453A3.75849,3.75849,0,0,0,17.75,37.32812l-.10156-.10058a1.75055,1.75055,0,0,1,.002-2.48242l.11621-.11524a3.68073,3.68073,0,0,0,1.09766-2.62207,3.73783,3.73783,0,0,0-1.10987-2.668l-.10693-.10644A1.76617,1.76617,0,0,1,17.707,26.707a4.46145,4.46145,0,0,0,.55615-5.61523l-1.736-2.60376A17.02036,17.02036,0,0,1,23.44946,13.94916ZM12,30a16.88773,16.88773,0,0,1,3.20276-9.89325l1.39636,2.09442a2.48194,2.48194,0,0,1-.36572,3.15137,3.74982,3.74982,0,0,0,.00244,5.29785l.10693.10645a1.74839,1.74839,0,0,1,.52149,1.24609,1.69242,1.69242,0,0,1-.5044,1.20508l-.11621.11523a3.75105,3.75105,0,0,0-.00683,5.32129l.10156.10059a1.7732,1.7732,0,0,1,.52978,1.26172,1.72207,1.72207,0,0,1-.51123,1.22754l-.1333.13183a3.71333,3.71333,0,0,0,.00391,5.26758l.52539.52148a1.18237,1.18237,0,0,1,.00293,1.67481l-2.53674,2.53674A16.87846,16.87846,0,0,1,12,43Z" style="fill:#231f20"/></svg>
